# xmcd CD database file
#
# Track frame offsets:
#	182
#	17437
#	40235
#	75982
#	100035
#	111885
#	126237
#	216152
#	227755
#	250802
#	275500
#	278085
#	295350
#
# Disc length: 4448 seconds
#
# Revision: 0
# Processed by: cddbd v1.4PL0 Copyright (c) Steve Scherf et al.
# Submitted via: Feurio! 1.66 - http://www.feurio.com
#
DISCID=b0115e0d
DTITLE=The Original Fleedwood Mac Blues Band - The Last Fillmore West Live 
DTITLE=Concert January 4th 1970
DYEAR=1900
DGENRE=
TTITLE0=Can't Stop Loving
TTITLE1=Like It This Way
TTITLE2=Got A Mind To Give Up Living
TTITLE3=Stop Messing Around
TTITLE4=Loving Kind
TTITLE5=Please Set A Date
TTITLE6=Rattlesnake Shake
TTITLE7=Oh Well
TTITLE8=Madison Blues
TTITLE9=Jenny Jenny
TTITLE10=Oh Suzanna
TTITLE11=Twist and Shout
TTITLE12=Long Tall Sally
EXTD=
EXTT0=Jeremy Lead Vocal and Slide
EXTT1=Denny Kerwin Vocal and Lead
EXTT2=Peter GPeter Green Vocal and Leadreen Vocal and Lead
EXTT3=Peter Green Vocal and Lead
EXTT4=Denny Kerwin Voca
EXTT5=Jeremy Lead and Vocal
EXTT6=Peter Green Lead and Vocal
EXTT7=Peter Green Lead and Vocal
EXTT8=Jeremy Spencer Lead and Vocal
EXTT9=Peter Green Lead and Vocal
EXTT10=Peter Green Solo Harmonica
EXTT11=Peter Green Vocal and Lead
EXTT12=Peter Green Vocal and Lead
PLAYORDER=
